<svg width="25" height="25" viewBox="0 0 25 25" fill="none" xmlns="http://www.w3.org/2000/svg">
<path fill-rule="evenodd" clip-rule="evenodd" d="M12.5 20C16.9183 20 20.5 16.4183 20.5 12C20.5 7.58172 16.9183 4 12.5 4C8.08172 4 4.5 7.58172 4.5 12C4.5 16.4183 8.08172 20 12.5 20ZM12.5 22C18.0228 22 22.5 17.5228 22.5 12C22.5 6.47715 18.0228 2 12.5 2C6.97715 2 2.5 6.47715 2.5 12C2.5 17.5228 6.97715 22 12.5 22Z" fill="#777E91"/>
<path fill-rule="evenodd" clip-rule="evenodd" d="M11.6332 9.50073C11.3567 9.97879 10.745 10.1421 10.2669 9.86561C9.78884 9.58906 9.62547 8.97733 9.90202 8.49927C10.4192 7.60518 11.3884 7 12.5001 7C14.1569 7 15.5001 8.34315 15.5001 10C15.5 11.0977 14.8267 11.994 14.0001 12.5C13.3361 12.9065 13.7501 14 12.4974 14C11.9452 14 11.4974 13.5523 11.4974 13C11.4974 12.9649 11.4992 12.9302 11.5028 12.896C11.5305 12.3672 11.7663 11.9368 12.0231 11.6239C12.2943 11.2935 12.6508 11.0237 12.9234 10.8616C14.4401 9.96 12.5902 8.1154 11.6332 9.50073ZM12.4974 15C11.9452 15 11.4974 15.4477 11.4974 16C11.4974 16.5523 11.9452 17 12.4974 17C13.0497 17 13.4974 16.5523 13.4974 16C13.4974 15.4477 13.0497 15 12.4974 15Z" fill="#777E91"/>
</svg>
